<svg width="20" height="20" viewBox="0 0 20 20" fill="none" xmlns="http://www.w3.org/2000/svg">
<rect width="20" height="20" rx="2" fill="#B6C6D2"/>
<path d="M13.6506 6.66663L10.0001 6.66697L6.34957 6.66663C5.91193 6.66663 5.55566 7.00877 5.55566 7.42963C5.55566 7.54461 5.58315 7.65612 5.63705 7.76107C6.22877 8.92041 7.22125 10.5645 8.09691 12.0152C8.55445 12.7734 8.98667 13.4894 9.29917 14.0336C9.44711 14.2908 9.70896 14.4444 10.0005 14.4444C10.2917 14.4444 10.5535 14.2908 10.7014 14.0336C11.0136 13.4898 11.4454 12.7741 11.9026 12.0166C12.7786 10.5655 13.7711 8.92076 14.3632 7.76177C14.4171 7.65647 14.4446 7.54461 14.4446 7.42963C14.4446 7.00877 14.0883 6.66663 13.6506 6.66663Z" fill="#0D121A"/>
</svg>
